M48
; DRILL file {KiCad 9.0.6} date 2026-02-23T17:38:09-0800
; FORMAT={-:-/ absolute / inch / decimal}
; #@! TF.CreationDate,2026-02-23T17:38:09-08:00
; #@! TF.GenerationSoftware,Kicad,Pcbnew,9.0.6
; #@! TF.FileFunction,Plated,1,2,PTH
FMAT,2
INCH
; #@! TA.AperFunction,Plated,PTH,ViaDrill
T1C0.0118
; #@! TA.AperFunction,Plated,PTH,ComponentDrill
T2C0.0394
; #@! TA.AperFunction,Plated,PTH,ComponentDrill
T3C0.0472
%
G90
G05
T1
X2.5394Y-2.7323
X2.5394Y-2.8898
X2.5394Y-3.0276
X2.5394Y-3.185
X2.5394Y-3.5394
X2.5394Y-3.6772
X2.5394Y-3.815
X2.5394Y-3.9921
X2.6575Y-2.0236
X2.8519Y-2.5965
X2.8538Y-3.7362
X2.8543Y-2.7913
X2.8543Y-2.9291
X2.8543Y-3.126
X2.8543Y-3.3819
X2.8543Y-3.5591
X2.8543Y-3.9134
X3.248Y-4.311
X3.314Y-3.9528
X3.3789Y-4.2874
X3.4843Y-3.9528
X3.5039Y-3.7756
X3.5827Y-3.5787
T2
X2.9724Y-4.3843
X2.9724Y-4.4843
X2.9724Y-4.5843
X2.9724Y-4.6843
X2.9724Y-4.7843
X2.9724Y-4.8843
X2.9724Y-4.9843
X3.5724Y-4.3843
X3.5724Y-4.4843
X3.5724Y-4.5843
X3.5724Y-4.6843
X3.5724Y-4.7843
X3.5724Y-4.8843
X3.5724Y-4.9843
T3
X2.3458Y-2.2008
X2.3458Y-2.3386
X2.3647Y-2.6909
X2.3647Y-2.8287
X2.3647Y-2.9665
X2.3647Y-3.1043
X2.3647Y-3.498
X2.3647Y-3.6358
X2.3647Y-3.7736
X2.3647Y-3.9114
X4.1535Y-2.9685
X4.1535Y-3.1063
X4.1535Y-3.2441
X4.1535Y-3.3819
X4.1535Y-3.5984
X4.1535Y-3.7362
X4.1535Y-3.874
X4.1535Y-4.0118
X4.1535Y-4.2283
X4.1535Y-4.3661
X4.1535Y-4.5039
X4.1535Y-4.6417
M30
