M48
; DRILL file {KiCad 9.0.6} date 2026-02-23T17:20:12-0800
; FORMAT={-:-/ absolute / metric / decimal}
; #@! TF.CreationDate,2026-02-23T17:20:12-08:00
; #@! TF.GenerationSoftware,Kicad,Pcbnew,9.0.6
; #@! TF.FileFunction,Plated,1,2,PTH
FMAT,2
METRIC
; #@! TA.AperFunction,Plated,PTH,ViaDrill
T1C0.300
; #@! TA.AperFunction,Plated,PTH,ComponentDrill
T2C1.000
; #@! TA.AperFunction,Plated,PTH,ComponentDrill
T3C1.200
%
G90
G05
T1
X64.5Y-69.4
X64.5Y-73.4
X64.5Y-76.9
X64.5Y-80.9
X64.5Y-89.9
X64.5Y-93.4
X64.5Y-96.9
X64.5Y-101.4
X67.5Y-51.4
X72.438Y-65.95
X72.487Y-94.9
X72.5Y-70.9
X72.5Y-74.4
X72.5Y-79.4
X72.5Y-85.9
X72.5Y-90.4
X72.5Y-99.4
X82.5Y-109.5
X84.175Y-100.4
X85.825Y-108.9
X88.5Y-100.4
X89.0Y-95.9
X91.0Y-90.9
T2
X75.5Y-111.36
X75.5Y-113.9
X75.5Y-116.44
X75.5Y-118.98
X75.5Y-121.52
X75.5Y-124.06
X75.5Y-126.6
X90.74Y-111.36
X90.74Y-113.9
X90.74Y-116.44
X90.74Y-118.98
X90.74Y-121.52
X90.74Y-124.06
X90.74Y-126.6
T3
X59.582Y-55.9
X59.582Y-59.4
X60.062Y-68.35
X60.062Y-71.85
X60.062Y-75.35
X60.062Y-78.85
X60.062Y-88.85
X60.062Y-92.35
X60.062Y-95.85
X60.062Y-99.35
X105.5Y-75.4
X105.5Y-78.9
X105.5Y-82.4
X105.5Y-85.9
X105.5Y-91.4
X105.5Y-94.9
X105.5Y-98.4
X105.5Y-101.9
X105.5Y-107.4
X105.5Y-110.9
X105.5Y-114.4
X105.5Y-117.9
M30
