%TF.GenerationSoftware,KiCad,Pcbnew,9.0.6*%
%TF.CreationDate,2026-01-25T10:26:39-08:00*%
%TF.ProjectId,haven_buttons2.kicad_pro,68617665-6e5f-4627-9574-746f6e73322e,rev?*%
%TF.SameCoordinates,Original*%
%TF.FileFunction,Copper,L1,Top*%
%TF.FilePolarity,Positive*%
%FSLAX46Y46*%
G04 Gerber Fmt 4.6, Leading zero omitted, Abs format (unit mm)*
G04 Created by KiCad (PCBNEW 9.0.6) date 2026-01-25 10:26:39*
%MOMM*%
%LPD*%
G01*
G04 APERTURE LIST*
G04 Aperture macros list*
%AMRoundRect*
0 Rectangle with rounded corners*
0 $1 Rounding radius*
0 $2 $3 $4 $5 $6 $7 $8 $9 X,Y pos of 4 corners*
0 Add a 4 corners polygon primitive as box body*
4,1,4,$2,$3,$4,$5,$6,$7,$8,$9,$2,$3,0*
0 Add four circle primitives for the rounded corners*
1,1,$1+$1,$2,$3*
1,1,$1+$1,$4,$5*
1,1,$1+$1,$6,$7*
1,1,$1+$1,$8,$9*
0 Add four rect primitives between the rounded corners*
20,1,$1+$1,$2,$3,$4,$5,0*
20,1,$1+$1,$4,$5,$6,$7,0*
20,1,$1+$1,$6,$7,$8,$9,0*
20,1,$1+$1,$8,$9,$2,$3,0*%
G04 Aperture macros list end*
%TA.AperFunction,SMDPad,CuDef*%
%ADD10RoundRect,0.100000X0.637500X0.100000X-0.637500X0.100000X-0.637500X-0.100000X0.637500X-0.100000X0*%
%TD*%
%TA.AperFunction,SMDPad,CuDef*%
%ADD11RoundRect,0.150000X0.587500X0.150000X-0.587500X0.150000X-0.587500X-0.150000X0.587500X-0.150000X0*%
%TD*%
%TA.AperFunction,SMDPad,CuDef*%
%ADD12RoundRect,0.218750X-0.218750X-0.256250X0.218750X-0.256250X0.218750X0.256250X-0.218750X0.256250X0*%
%TD*%
%TA.AperFunction,SMDPad,CuDef*%
%ADD13RoundRect,0.200000X0.200000X0.275000X-0.200000X0.275000X-0.200000X-0.275000X0.200000X-0.275000X0*%
%TD*%
%TA.AperFunction,SMDPad,CuDef*%
%ADD14RoundRect,0.200000X0.275000X-0.200000X0.275000X0.200000X-0.275000X0.200000X-0.275000X-0.200000X0*%
%TD*%
%TA.AperFunction,ComponentPad*%
%ADD15R,1.700000X1.700000*%
%TD*%
%TA.AperFunction,ComponentPad*%
%ADD16C,1.700000*%
%TD*%
%TA.AperFunction,SMDPad,CuDef*%
%ADD17RoundRect,0.200000X-0.200000X-0.275000X0.200000X-0.275000X0.200000X0.275000X-0.200000X0.275000X0*%
%TD*%
%TA.AperFunction,ComponentPad*%
%ADD18RoundRect,0.250001X-0.899999X0.899999X-0.899999X-0.899999X0.899999X-0.899999X0.899999X0.899999X0*%
%TD*%
%TA.AperFunction,ComponentPad*%
%ADD19C,2.300000*%
%TD*%
%TA.AperFunction,SMDPad,CuDef*%
%ADD20RoundRect,0.225000X-0.225000X-0.250000X0.225000X-0.250000X0.225000X0.250000X-0.225000X0.250000X0*%
%TD*%
%TA.AperFunction,SMDPad,CuDef*%
%ADD21RoundRect,0.225000X-0.250000X0.225000X-0.250000X-0.225000X0.250000X-0.225000X0.250000X0.225000X0*%
%TD*%
%TA.AperFunction,ComponentPad*%
%ADD22RoundRect,0.250001X0.899999X-0.899999X0.899999X0.899999X-0.899999X0.899999X-0.899999X-0.899999X0*%
%TD*%
%TA.AperFunction,SMDPad,CuDef*%
%ADD23RoundRect,0.250000X-0.475000X0.250000X-0.475000X-0.250000X0.475000X-0.250000X0.475000X0.250000X0*%
%TD*%
%TA.AperFunction,SMDPad,CuDef*%
%ADD24RoundRect,0.225000X0.375000X-0.225000X0.375000X0.225000X-0.375000X0.225000X-0.375000X-0.225000X0*%
%TD*%
%TA.AperFunction,SMDPad,CuDef*%
%ADD25RoundRect,0.250000X0.650000X-1.000000X0.650000X1.000000X-0.650000X1.000000X-0.650000X-1.000000X0*%
%TD*%
%TA.AperFunction,SMDPad,CuDef*%
%ADD26RoundRect,0.375000X-0.625000X-0.375000X0.625000X-0.375000X0.625000X0.375000X-0.625000X0.375000X0*%
%TD*%
%TA.AperFunction,SMDPad,CuDef*%
%ADD27RoundRect,0.500000X-0.500000X-1.400000X0.500000X-1.400000X0.500000X1.400000X-0.500000X1.400000X0*%
%TD*%
%TA.AperFunction,SMDPad,CuDef*%
%ADD28RoundRect,0.250000X0.550000X-1.300000X0.550000X1.300000X-0.550000X1.300000X-0.550000X-1.300000X0*%
%TD*%
%TA.AperFunction,ViaPad*%
%ADD29C,0.600000*%
%TD*%
%TA.AperFunction,Conductor*%
%ADD30C,0.200000*%
%TD*%
G04 APERTURE END LIST*
D10*
%TO.P,U2,1,~{INT}*%
%TO.N,unconnected-(U2-~{INT}-Pad1)*%
X93862500Y-91975000D03*
%TO.P,U2,2,A1*%
%TO.N,GND*%
X93862500Y-91325000D03*
%TO.P,U2,3,A2*%
X93862500Y-90675000D03*
%TO.P,U2,4,IO0_0*%
%TO.N,/IN 1*%
X93862500Y-90025000D03*
%TO.P,U2,5,IO0_1*%
%TO.N,/IN 2*%
X93862500Y-89375000D03*
%TO.P,U2,6,IO0_2*%
%TO.N,/IN 3*%
X93862500Y-88725000D03*
%TO.P,U2,7,IO0_3*%
%TO.N,/IN 4*%
X93862500Y-88075000D03*
%TO.P,U2,8,IO0_4*%
%TO.N,/IN 5*%
X93862500Y-87425000D03*
%TO.P,U2,9,IO0_5*%
%TO.N,/IN 6*%
X93862500Y-86775000D03*
%TO.P,U2,10,IO0_6*%
%TO.N,/IN 7*%
X93862500Y-86125000D03*
%TO.P,U2,11,IO0_7*%
%TO.N,/IN 8*%
X93862500Y-85475000D03*
%TO.P,U2,12,VSS*%
%TO.N,GND*%
X93862500Y-84825000D03*
%TO.P,U2,13,IO1_0*%
%TO.N,/IN 12*%
X88137500Y-84825000D03*
%TO.P,U2,14,IO1_1*%
%TO.N,/IN 11*%
X88137500Y-85475000D03*
%TO.P,U2,15,IO1_2*%
%TO.N,/IN 10*%
X88137500Y-86125000D03*
%TO.P,U2,16,IO1_3*%
%TO.N,/IN 9*%
X88137500Y-86775000D03*
%TO.P,U2,17,IO1_4*%
%TO.N,/SW1_2*%
X88137500Y-87425000D03*
%TO.P,U2,18,IO1_5*%
%TO.N,/SW1_1*%
X88137500Y-88075000D03*
%TO.P,U2,19,IO1_6*%
%TO.N,/SW1_0*%
X88137500Y-88725000D03*
%TO.P,U2,20,IO1_7*%
%TO.N,/LED OUT*%
X88137500Y-89375000D03*
%TO.P,U2,21,A0*%
%TO.N,GND*%
X88137500Y-90025000D03*
%TO.P,U2,22,SCL*%
%TO.N,/SCL*%
X88137500Y-90675000D03*
%TO.P,U2,23,SDA*%
%TO.N,/SDA*%
X88137500Y-91325000D03*
%TO.P,U2,24,VDD*%
%TO.N,+5V*%
X88137500Y-91975000D03*
%TD*%
D11*
%TO.P,Q7,1,B*%
%TO.N,Net-(Q7-B)*%
X70975000Y-72925000D03*
%TO.P,Q7,2,E*%
%TO.N,GND*%
X70975000Y-71025000D03*
%TO.P,Q7,3,C*%
%TO.N,/SIGNAL 7*%
X69100000Y-71975000D03*
%TD*%
%TO.P,Q6,1,B*%
%TO.N,Net-(Q6-B)*%
X70875000Y-76850000D03*
%TO.P,Q6,2,E*%
%TO.N,GND*%
X70875000Y-74950000D03*
%TO.P,Q6,3,C*%
%TO.N,/SIGNAL 6*%
X69000000Y-75900000D03*
%TD*%
%TO.P,Q5,1,B*%
%TO.N,Net-(Q5-B)*%
X70875000Y-81350000D03*
%TO.P,Q5,2,E*%
%TO.N,GND*%
X70875000Y-79450000D03*
%TO.P,Q5,3,C*%
%TO.N,/SIGNAL 5*%
X69000000Y-80400000D03*
%TD*%
%TO.P,Q3,1,B*%
%TO.N,Net-(Q3-B)*%
X70950000Y-92350000D03*
%TO.P,Q3,2,E*%
%TO.N,GND*%
X70950000Y-90450000D03*
%TO.P,Q3,3,C*%
%TO.N,/SIGNAL 3*%
X69075000Y-91400000D03*
%TD*%
%TO.P,Q8,1,B*%
%TO.N,Net-(Q8-B)*%
X71000000Y-67850000D03*
%TO.P,Q8,2,E*%
%TO.N,GND*%
X71000000Y-65950000D03*
%TO.P,Q8,3,C*%
%TO.N,/SIGNAL 8*%
X69125000Y-66900000D03*
%TD*%
%TO.P,Q2,1,B*%
%TO.N,Net-(Q2-B)*%
X70925000Y-96800000D03*
%TO.P,Q2,2,E*%
%TO.N,GND*%
X70925000Y-94900000D03*
%TO.P,Q2,3,C*%
%TO.N,/SIGNAL 2*%
X69050000Y-95850000D03*
%TD*%
%TO.P,Q4,1,B*%
%TO.N,Net-(Q4-B)*%
X70875000Y-87850000D03*
%TO.P,Q4,2,E*%
%TO.N,GND*%
X70875000Y-85950000D03*
%TO.P,Q4,3,C*%
%TO.N,/SIGNAL 4*%
X69000000Y-86900000D03*
%TD*%
%TO.P,Q1,1,B*%
%TO.N,Net-(Q1-B)*%
X70875000Y-101350000D03*
%TO.P,Q1,2,E*%
%TO.N,GND*%
X70875000Y-99450000D03*
%TO.P,Q1,3,C*%
%TO.N,/SIGNAL 1*%
X69000000Y-100400000D03*
%TD*%
D12*
%TO.P,D1,1,K*%
%TO.N,GND*%
X83227500Y-59000000D03*
%TO.P,D1,2,A*%
%TO.N,Net-(D1-A)*%
X84802500Y-59000000D03*
%TD*%
D13*
%TO.P,R5,1*%
%TO.N,/SCL*%
X85825000Y-110400000D03*
%TO.P,R5,2*%
%TO.N,+5V*%
X84175000Y-110400000D03*
%TD*%
D14*
%TO.P,R11,1*%
%TO.N,+12V*%
X66000000Y-100500000D03*
%TO.P,R11,2*%
%TO.N,/SIGNAL 1*%
X66000000Y-98850000D03*
%TD*%
D15*
%TO.P,J2,1,Pin_1*%
%TO.N,+5V*%
X75500000Y-126600000D03*
D16*
%TO.P,J2,2,Pin_2*%
%TO.N,GND*%
X75500000Y-124060000D03*
%TO.P,J2,3,Pin_3*%
%TO.N,unconnected-(J2-Pin_3-Pad3)*%
X75500000Y-121520000D03*
%TO.P,J2,4,Pin_4*%
%TO.N,/OUT 4*%
X75500000Y-118980000D03*
%TO.P,J2,5,Pin_5*%
%TO.N,/OUT 3*%
X75500000Y-116440000D03*
%TO.P,J2,6,Pin_6*%
%TO.N,/OUT 2*%
X75500000Y-113900000D03*
%TO.P,J2,7,Pin_7*%
%TO.N,/OUT 1*%
X75500000Y-111360000D03*
%TD*%
D17*
%TO.P,R26,1*%
%TO.N,Net-(Q6-B)*%
X73612500Y-75400000D03*
%TO.P,R26,2*%
%TO.N,/OUT 6*%
X75262500Y-75400000D03*
%TD*%
D13*
%TO.P,R34,1*%
%TO.N,/OUT 4*%
X70325000Y-119000000D03*
%TO.P,R34,2*%
%TO.N,GND*%
X68675000Y-119000000D03*
%TD*%
D18*
%TO.P,J3,1,Pin_1*%
%TO.N,/SIGNAL 4*%
X60062500Y-88850000D03*
D19*
%TO.P,J3,2,Pin_2*%
%TO.N,/SIGNAL 3*%
X60062500Y-92350000D03*
%TO.P,J3,3,Pin_3*%
%TO.N,/SIGNAL 2*%
X60062500Y-95850000D03*
%TO.P,J3,4,Pin_4*%
%TO.N,/SIGNAL 1*%
X60062500Y-99350000D03*
%TD*%
D20*
%TO.P,C25,1*%
%TO.N,GND*%
X90725000Y-97400000D03*
%TO.P,C25,2*%
%TO.N,+5V*%
X92275000Y-97400000D03*
%TD*%
D13*
%TO.P,R31,1*%
%TO.N,/OUT 1*%
X70325000Y-111500000D03*
%TO.P,R31,2*%
%TO.N,GND*%
X68675000Y-111500000D03*
%TD*%
D17*
%TO.P,R27,1*%
%TO.N,Net-(Q7-B)*%
X73650000Y-71925000D03*
%TO.P,R27,2*%
%TO.N,/OUT 7*%
X75300000Y-71925000D03*
%TD*%
D21*
%TO.P,C21,1*%
%TO.N,+12V*%
X70000000Y-58400000D03*
%TO.P,C21,2*%
%TO.N,GND*%
X70000000Y-59950000D03*
%TD*%
D13*
%TO.P,R4,1*%
%TO.N,/SDA*%
X87325000Y-113400000D03*
%TO.P,R4,2*%
%TO.N,+5V*%
X85675000Y-113400000D03*
%TD*%
D22*
%TO.P,J4,1,Pin_1*%
%TO.N,/IN 1*%
X105500000Y-117900000D03*
D19*
%TO.P,J4,2,Pin_2*%
%TO.N,/IN 2*%
X105500000Y-114400000D03*
%TO.P,J4,3,Pin_3*%
%TO.N,/IN 3*%
X105500000Y-110900000D03*
%TO.P,J4,4,Pin_4*%
%TO.N,/IN 4*%
X105500000Y-107400000D03*
%TD*%
D17*
%TO.P,R21,1*%
%TO.N,Net-(Q1-B)*%
X73500000Y-101350000D03*
%TO.P,R21,2*%
%TO.N,/OUT 1*%
X75150000Y-101350000D03*
%TD*%
D13*
%TO.P,R35,1*%
%TO.N,GND*%
X95825000Y-119000000D03*
%TO.P,R35,2*%
%TO.N,/OUT 8*%
X94175000Y-119000000D03*
%TD*%
D17*
%TO.P,R28,1*%
%TO.N,Net-(Q8-B)*%
X73500000Y-67900000D03*
%TO.P,R28,2*%
%TO.N,/OUT 8*%
X75150000Y-67900000D03*
%TD*%
D14*
%TO.P,R18,1*%
%TO.N,+12V*%
X66000000Y-68725000D03*
%TO.P,R18,2*%
%TO.N,/SIGNAL 8*%
X66000000Y-67075000D03*
%TD*%
D18*
%TO.P,J8,1,Pin_1*%
%TO.N,+12V*%
X59582500Y-55900000D03*
D19*
%TO.P,J8,2,Pin_2*%
%TO.N,GND*%
X59582500Y-59400000D03*
%TD*%
D17*
%TO.P,R23,1*%
%TO.N,Net-(Q3-B)*%
X73687500Y-92400000D03*
%TO.P,R23,2*%
%TO.N,/OUT 3*%
X75337500Y-92400000D03*
%TD*%
D13*
%TO.P,R38,1*%
%TO.N,GND*%
X95825000Y-126500000D03*
%TO.P,R38,2*%
%TO.N,/OUT 5*%
X94175000Y-126500000D03*
%TD*%
D17*
%TO.P,R24,1*%
%TO.N,Net-(Q4-B)*%
X73612500Y-87900000D03*
%TO.P,R24,2*%
%TO.N,/OUT 4*%
X75262500Y-87900000D03*
%TD*%
D23*
%TO.P,C22,1*%
%TO.N,Net-(D3-A)*%
X74500000Y-58450000D03*
%TO.P,C22,2*%
%TO.N,GND*%
X74500000Y-60350000D03*
%TD*%
D14*
%TO.P,R13,1*%
%TO.N,+12V*%
X66012500Y-92725000D03*
%TO.P,R13,2*%
%TO.N,/SIGNAL 3*%
X66012500Y-91075000D03*
%TD*%
D13*
%TO.P,R33,1*%
%TO.N,/OUT 3*%
X70325000Y-116500000D03*
%TO.P,R33,2*%
%TO.N,GND*%
X68675000Y-116500000D03*
%TD*%
D22*
%TO.P,J9,1,Pin_1*%
%TO.N,/IN 9*%
X105500000Y-85900000D03*
D19*
%TO.P,J9,2,Pin_2*%
%TO.N,/IN 10*%
X105500000Y-82400000D03*
%TO.P,J9,3,Pin_3*%
%TO.N,/IN 11*%
X105500000Y-78900000D03*
%TO.P,J9,4,Pin_4*%
%TO.N,/IN 12*%
X105500000Y-75400000D03*
%TD*%
D14*
%TO.P,R14,1*%
%TO.N,+12V*%
X65937500Y-89050000D03*
%TO.P,R14,2*%
%TO.N,/SIGNAL 4*%
X65937500Y-87400000D03*
%TD*%
D17*
%TO.P,R1,1*%
%TO.N,/LED OUT*%
X83350000Y-61900000D03*
%TO.P,R1,2*%
%TO.N,Net-(D1-A)*%
X85000000Y-61900000D03*
%TD*%
D18*
%TO.P,J7,1,Pin_1*%
%TO.N,/SIGNAL 8*%
X60062500Y-68350000D03*
D19*
%TO.P,J7,2,Pin_2*%
%TO.N,/SIGNAL 7*%
X60062500Y-71850000D03*
%TO.P,J7,3,Pin_3*%
%TO.N,/SIGNAL 6*%
X60062500Y-75350000D03*
%TO.P,J7,4,Pin_4*%
%TO.N,/SIGNAL 5*%
X60062500Y-78850000D03*
%TD*%
D17*
%TO.P,R22,1*%
%TO.N,Net-(Q2-B)*%
X73550000Y-96850000D03*
%TO.P,R22,2*%
%TO.N,/OUT 2*%
X75200000Y-96850000D03*
%TD*%
D24*
%TO.P,D2,1,K*%
%TO.N,+5V*%
X69500000Y-126150000D03*
%TO.P,D2,2,A*%
%TO.N,GND*%
X69500000Y-122850000D03*
%TD*%
D13*
%TO.P,R32,1*%
%TO.N,/OUT 2*%
X70325000Y-114000000D03*
%TO.P,R32,2*%
%TO.N,GND*%
X68675000Y-114000000D03*
%TD*%
D22*
%TO.P,J6,1,Pin_1*%
%TO.N,/IN 5*%
X105500000Y-101900000D03*
D19*
%TO.P,J6,2,Pin_2*%
%TO.N,/IN 6*%
X105500000Y-98400000D03*
%TO.P,J6,3,Pin_3*%
%TO.N,/IN 7*%
X105500000Y-94900000D03*
%TO.P,J6,4,Pin_4*%
%TO.N,/IN 8*%
X105500000Y-91400000D03*
%TD*%
D25*
%TO.P,D3,1,K*%
%TO.N,+5V*%
X81000000Y-69500000D03*
%TO.P,D3,2,A*%
%TO.N,Net-(D3-A)*%
X81000000Y-65500000D03*
%TD*%
D13*
%TO.P,R37,1*%
%TO.N,GND*%
X95825000Y-124000000D03*
%TO.P,R37,2*%
%TO.N,/OUT 6*%
X94175000Y-124000000D03*
%TD*%
D14*
%TO.P,R15,1*%
%TO.N,+12V*%
X66000000Y-80050000D03*
%TO.P,R15,2*%
%TO.N,/SIGNAL 5*%
X66000000Y-78400000D03*
%TD*%
D26*
%TO.P,U21,1,GND*%
%TO.N,GND*%
X70200000Y-51100000D03*
%TO.P,U21,2,VO*%
%TO.N,Net-(D3-A)*%
X70200000Y-53400000D03*
D27*
X76500000Y-53400000D03*
D26*
%TO.P,U21,3,VI*%
%TO.N,+12V*%
X70200000Y-55700000D03*
%TD*%
D13*
%TO.P,R36,1*%
%TO.N,GND*%
X95825000Y-121500000D03*
%TO.P,R36,2*%
%TO.N,/OUT 7*%
X94175000Y-121500000D03*
%TD*%
D14*
%TO.P,R12,1*%
%TO.N,+12V*%
X66000000Y-96175000D03*
%TO.P,R12,2*%
%TO.N,/SIGNAL 2*%
X66000000Y-94525000D03*
%TD*%
D15*
%TO.P,J1,1,Pin_1*%
%TO.N,/OUT 5*%
X90740000Y-126600000D03*
D16*
%TO.P,J1,2,Pin_2*%
%TO.N,/OUT 6*%
X90740000Y-124060000D03*
%TO.P,J1,3,Pin_3*%
%TO.N,/OUT 7*%
X90740000Y-121520000D03*
%TO.P,J1,4,Pin_4*%
%TO.N,/OUT 8*%
X90740000Y-118980000D03*
%TO.P,J1,5,Pin_5*%
%TO.N,/SDA*%
X90740000Y-116440000D03*
%TO.P,J1,6,Pin_6*%
%TO.N,/SCL*%
X90740000Y-113900000D03*
%TO.P,J1,7,Pin_7*%
%TO.N,unconnected-(J1-Pin_7-Pad7)*%
X90740000Y-111360000D03*
%TD*%
D17*
%TO.P,R25,1*%
%TO.N,Net-(Q5-B)*%
X73725000Y-80450000D03*
%TO.P,R25,2*%
%TO.N,/OUT 5*%
X75375000Y-80450000D03*
%TD*%
D14*
%TO.P,R16,1*%
%TO.N,+12V*%
X65937500Y-76225000D03*
%TO.P,R16,2*%
%TO.N,/SIGNAL 6*%
X65937500Y-74575000D03*
%TD*%
%TO.P,R17,1*%
%TO.N,+12V*%
X65912500Y-72700000D03*
%TO.P,R17,2*%
%TO.N,/SIGNAL 7*%
X65912500Y-71050000D03*
%TD*%
D28*
%TO.P,SW1,1*%
%TO.N,GND*%
X91420000Y-59790000D03*
%TO.P,SW1,2*%
X93960000Y-59790000D03*
%TO.P,SW1,3*%
X96500000Y-59790000D03*
%TO.P,SW1,4*%
%TO.N,/SW1_2*%
X96500000Y-50900000D03*
%TO.P,SW1,5*%
%TO.N,/SW1_1*%
X93960000Y-50900000D03*
%TO.P,SW1,6*%
%TO.N,/SW1_0*%
X91420000Y-50900000D03*
%TD*%
D29*
%TO.N,+5V*%
X84175000Y-108400000D03*
X84175000Y-100400000D03*
X88500000Y-100400000D03*
%TO.N,/SCL*%
X85825000Y-108900000D03*
%TO.N,GND*%
X67500000Y-51400000D03*
X72487500Y-94900000D03*
X91000000Y-90900000D03*
X72500000Y-90400000D03*
X72500000Y-70900000D03*
X72500000Y-85900000D03*
X72500000Y-74400000D03*
X72500000Y-79400000D03*
X89000000Y-95900000D03*
X72437500Y-65950000D03*
X72500000Y-99400000D03*
%TO.N,+12V*%
X64500000Y-93400000D03*
X64500000Y-69400000D03*
X64500000Y-96900000D03*
X64500000Y-80900000D03*
X64500000Y-101400000D03*
X64500000Y-89900000D03*
X64500000Y-76900000D03*
X64500000Y-73400000D03*
%TD*%
D30*
%TO.N,GND*%
X83000000Y-47400000D02*
X83000000Y-47710000D01*
X83000000Y-47710000D02*
X83227500Y-47937500D01*
X83227500Y-59000000D02*
X83227500Y-47937500D01*
%TO.N,Net-(D1-A)*%
X85000000Y-61900000D02*
X85000000Y-59197500D01*
X85000000Y-59197500D02*
X84802500Y-59000000D01*
%TO.N,Net-(D3-A)*%
X76500000Y-53400000D02*
X76500000Y-55400000D01*
X76500000Y-55400000D02*
X81000000Y-59900000D01*
%TO.N,/OUT 8*%
X75150000Y-67900000D02*
X81599000Y-74349000D01*
X81599000Y-74349000D02*
X81599000Y-111041081D01*
X81599000Y-111041081D02*
X89537919Y-118980000D01*
X89537919Y-118980000D02*
X90740000Y-118980000D01*
%TO.N,/OUT 5*%
X94175000Y-126500000D02*
X93774000Y-126901000D01*
X93774000Y-126901000D02*
X91041000Y-126901000D01*
X91041000Y-126901000D02*
X91023550Y-126883550D01*
%TO.N,/OUT 6*%
X94175000Y-124000000D02*
X93373000Y-124802000D01*
X93373000Y-124802000D02*
X90914900Y-124802000D01*
X90914900Y-124802000D02*
X90456450Y-124343550D01*
%TO.N,/OUT 7*%
X94175000Y-121500000D02*
X93470450Y-122204550D01*
X93470450Y-122204550D02*
X90857450Y-122204550D01*
X90857450Y-122204550D02*
X90622550Y-121969650D01*
X90622550Y-121969650D02*
X90622550Y-121921000D01*
%TO.N,/OUT 8*%
X94175000Y-119000000D02*
X93754000Y-118579000D01*
X93754000Y-118579000D02*
X90740000Y-118579000D01*
%TO.N,/SW1_1*%
X93960000Y-52450000D02*
X93960000Y-50900000D01*
X87480130Y-88075000D02*
X86698000Y-87292870D01*
X88137500Y-88075000D02*
X87480130Y-88075000D01*
X86698000Y-59712000D02*
X93960000Y-52450000D01*
X86698000Y-87292870D02*
X86698000Y-59712000D01*
%TO.N,+5V*%
X84175000Y-111900000D02*
X85675000Y-113400000D01*
X82000000Y-70500000D02*
X82000000Y-98225000D01*
X81000000Y-69500000D02*
X82000000Y-70500000D01*
X89275000Y-100400000D02*
X92275000Y-97400000D01*
X90687500Y-91975000D02*
X92275000Y-93562500D01*
X75050000Y-126150000D02*
X75500000Y-126600000D01*
X82000000Y-98225000D02*
X84175000Y-100400000D01*
X88500000Y-100400000D02*
X89275000Y-100400000D01*
X88137500Y-91975000D02*
X90687500Y-91975000D01*
X92275000Y-97400000D02*
X92275000Y-93562500D01*
X84175000Y-108400000D02*
X84175000Y-111900000D01*
X69500000Y-126150000D02*
X75050000Y-126150000D01*
X84175000Y-100400000D02*
X84175000Y-108400000D01*
%TO.N,/SW1_2*%
X87099000Y-87123999D02*
X87099000Y-60397160D01*
X87099000Y-60397160D02*
X96500000Y-50996160D01*
X96500000Y-50996160D02*
X96500000Y-50900000D01*
X87400001Y-87425000D02*
X87099000Y-87123999D01*
X88137500Y-87425000D02*
X87400001Y-87425000D01*
%TO.N,/IN 9*%
X101000000Y-82900000D02*
X104000000Y-85900000D01*
X93567100Y-82900000D02*
X101000000Y-82900000D01*
X104000000Y-85900000D02*
X105500000Y-85900000D01*
X88137500Y-86775000D02*
X89692100Y-86775000D01*
X89692100Y-86775000D02*
X93567100Y-82900000D01*
%TO.N,/IN 11*%
X89425000Y-85475000D02*
X96000000Y-78900000D01*
X96000000Y-78900000D02*
X105500000Y-78900000D01*
X88137500Y-85475000D02*
X89425000Y-85475000D01*
%TO.N,/IN 12*%
X98500000Y-75400000D02*
X105500000Y-75400000D01*
X89075000Y-84825000D02*
X98500000Y-75400000D01*
X88137500Y-84825000D02*
X89075000Y-84825000D01*
%TO.N,/SCL*%
X85825000Y-108900000D02*
X85825000Y-92250001D01*
X85825000Y-92250001D02*
X87400001Y-90675000D01*
X85825000Y-110400000D02*
X85825000Y-108900000D01*
X87400001Y-90675000D02*
X88137500Y-90675000D01*
%TO.N,/IN 10*%
X89775000Y-86125000D02*
X93500000Y-82400000D01*
X93500000Y-82400000D02*
X105500000Y-82400000D01*
X88137500Y-86125000D02*
X89775000Y-86125000D01*
%TO.N,/SW1_0*%
X88137500Y-88725000D02*
X87325000Y-88725000D01*
X87325000Y-88725000D02*
X86297000Y-87697000D01*
X86297000Y-87697000D02*
X86297000Y-56023000D01*
X86297000Y-56023000D02*
X91420000Y-50900000D01*
%TO.N,/SDA*%
X87099000Y-91626001D02*
X87400001Y-91325000D01*
X87099000Y-113174000D02*
X87099000Y-91626001D01*
X87325000Y-113400000D02*
X87700000Y-113400000D01*
X87325000Y-113400000D02*
X87099000Y-113174000D01*
X87400001Y-91325000D02*
X88137500Y-91325000D01*
X87700000Y-113400000D02*
X90740000Y-116440000D01*
%TO.N,/LED OUT*%
X83350000Y-85324999D02*
X87400001Y-89375000D01*
X87400001Y-89375000D02*
X88137500Y-89375000D01*
X83350000Y-61900000D02*
X83350000Y-85324999D01*
%TO.N,GND*%
X70000000Y-59950000D02*
X74100000Y-59950000D01*
X91000000Y-90900000D02*
X91225000Y-90675000D01*
X93862500Y-90675000D02*
X93862500Y-91325000D01*
X70925000Y-99400000D02*
X70875000Y-99450000D01*
X72487500Y-94900000D02*
X70925000Y-94900000D01*
X69500000Y-119825000D02*
X68675000Y-119000000D01*
X79191000Y-127751000D02*
X94574000Y-127751000D01*
X93125001Y-84825000D02*
X93862500Y-84825000D01*
X68675000Y-119000000D02*
X68675000Y-111500000D01*
X69450000Y-59400000D02*
X70000000Y-59950000D01*
X74290000Y-122850000D02*
X75500000Y-124060000D01*
X90125000Y-90025000D02*
X88137500Y-90025000D01*
X91000000Y-90900000D02*
X90125000Y-90025000D01*
X91000000Y-90900000D02*
X91000000Y-86950001D01*
X75500000Y-124060000D02*
X79191000Y-127751000D01*
X83000000Y-47400000D02*
X83500000Y-47400000D01*
X90500000Y-97400000D02*
X90725000Y-97400000D01*
X72437500Y-79450000D02*
X70875000Y-79450000D01*
X72375000Y-74450000D02*
X71375000Y-74450000D01*
X71375000Y-74450000D02*
X70875000Y-74950000D01*
X74000000Y-47400000D02*
X83000000Y-47400000D01*
X67800000Y-51100000D02*
X70200000Y-51100000D01*
X72375000Y-85950000D02*
X70875000Y-85950000D01*
X70200000Y-51100000D02*
X70300000Y-51100000D01*
X95825000Y-126500000D02*
X95825000Y-119000000D01*
X83500000Y-47400000D02*
X98000000Y-47400000D01*
X91420000Y-59790000D02*
X96500000Y-59790000D01*
X94574000Y-127751000D02*
X95825000Y-126500000D01*
X72437500Y-65950000D02*
X71000000Y-65950000D01*
X67500000Y-51400000D02*
X67800000Y-51100000D01*
X69500000Y-122850000D02*
X74290000Y-122850000D01*
X89000000Y-95900000D02*
X90500000Y-97400000D01*
X71075000Y-70925000D02*
X70975000Y-71025000D01*
X91225000Y-90675000D02*
X93862500Y-90675000D01*
X72350000Y-70925000D02*
X71075000Y-70925000D01*
X99500000Y-56790000D02*
X96500000Y-59790000D01*
X72437500Y-99400000D02*
X70925000Y-99400000D01*
X72450000Y-90450000D02*
X70950000Y-90450000D01*
X91000000Y-86950001D02*
X93125001Y-84825000D01*
X98000000Y-47400000D02*
X99500000Y-48900000D01*
X99500000Y-48900000D02*
X99500000Y-56790000D01*
X59582500Y-59400000D02*
X67000000Y-59400000D01*
X69500000Y-122850000D02*
X69500000Y-119825000D01*
X74100000Y-59950000D02*
X74500000Y-60350000D01*
X70300000Y-51100000D02*
X74000000Y-47400000D01*
X67000000Y-59400000D02*
X69450000Y-59400000D01*
%TO.N,/IN 2*%
X100500000Y-114400000D02*
X105500000Y-114400000D01*
X97500000Y-92275001D02*
X97500000Y-111400000D01*
X94599999Y-89375000D02*
X97500000Y-92275001D01*
X93862500Y-89375000D02*
X94599999Y-89375000D01*
X97500000Y-111400000D02*
X100500000Y-114400000D01*
%TO.N,/IN 1*%
X97000000Y-92425001D02*
X97000000Y-115400000D01*
X93862500Y-90025000D02*
X94599999Y-90025000D01*
X94599999Y-90025000D02*
X97000000Y-92425001D01*
X99500000Y-117900000D02*
X105500000Y-117900000D01*
X97000000Y-115400000D02*
X99500000Y-117900000D01*
%TO.N,/IN 3*%
X98000000Y-92125001D02*
X98000000Y-107900000D01*
X93862500Y-88725000D02*
X94599999Y-88725000D01*
X98000000Y-107900000D02*
X101000000Y-110900000D01*
X94599999Y-88725000D02*
X98000000Y-92125001D01*
X101000000Y-110900000D02*
X105500000Y-110900000D01*
%TO.N,/IN 4*%
X93862500Y-88075000D02*
X94599999Y-88075000D01*
X98500000Y-104400000D02*
X101500000Y-107400000D01*
X101500000Y-107400000D02*
X105500000Y-107400000D01*
X98500000Y-91975001D02*
X98500000Y-104400000D01*
X94599999Y-88075000D02*
X98500000Y-91975001D01*
%TO.N,/OUT 3*%
X75500000Y-116440000D02*
X70385000Y-116440000D01*
X75500000Y-116440000D02*
X77401000Y-114539000D01*
X70385000Y-116440000D02*
X70325000Y-116500000D01*
X77401000Y-94463500D02*
X75337500Y-92400000D01*
X77401000Y-114539000D02*
X77401000Y-94463500D01*
%TO.N,/OUT 2*%
X77000000Y-112400000D02*
X77000000Y-97900000D01*
X70425000Y-113900000D02*
X70325000Y-114000000D01*
X75500000Y-113900000D02*
X70425000Y-113900000D01*
X75500000Y-113900000D02*
X77000000Y-112400000D01*
X77000000Y-97900000D02*
X75950000Y-96850000D01*
X75950000Y-96850000D02*
X75200000Y-96850000D01*
%TO.N,/OUT 4*%
X78000000Y-90637500D02*
X75262500Y-87900000D01*
X75500000Y-118980000D02*
X70345000Y-118980000D01*
X75500000Y-118980000D02*
X78000000Y-116480000D01*
X78000000Y-116480000D02*
X78000000Y-90637500D01*
X70345000Y-118980000D02*
X70325000Y-119000000D01*
%TO.N,/OUT 1*%
X75500000Y-111360000D02*
X75500000Y-101700000D01*
X70465000Y-111360000D02*
X70325000Y-111500000D01*
X75500000Y-101700000D02*
X75150000Y-101350000D01*
X75500000Y-111360000D02*
X70465000Y-111360000D01*
%TO.N,/IN 5*%
X102000000Y-101900000D02*
X105500000Y-101900000D01*
X99000000Y-98900000D02*
X102000000Y-101900000D01*
X99000000Y-91900000D02*
X99000000Y-98900000D01*
X94525000Y-87425000D02*
X99000000Y-91900000D01*
X93862500Y-87425000D02*
X94525000Y-87425000D01*
%TO.N,/IN 7*%
X103500000Y-94900000D02*
X105500000Y-94900000D01*
X93862500Y-86125000D02*
X94725000Y-86125000D01*
X94725000Y-86125000D02*
X103500000Y-94900000D01*
%TO.N,/OUT 8*%
X91161000Y-119000000D02*
X91141000Y-118980000D01*
%TO.N,/IN 8*%
X101000000Y-91400000D02*
X105500000Y-91400000D01*
X95075000Y-85475000D02*
X101000000Y-91400000D01*
X93862500Y-85475000D02*
X95075000Y-85475000D01*
%TO.N,/IN 6*%
X93862500Y-86775000D02*
X94599999Y-86775000D01*
X99500000Y-91675001D02*
X99500000Y-94900000D01*
X94599999Y-86775000D02*
X99500000Y-91675001D01*
X103000000Y-98400000D02*
X105500000Y-98400000D01*
X99500000Y-94900000D02*
X103000000Y-98400000D01*
%TO.N,/OUT 5*%
X90740000Y-126600000D02*
X79500000Y-115360000D01*
X79500000Y-115360000D02*
X79500000Y-84400000D01*
X91207100Y-126500000D02*
X91023550Y-126316450D01*
X79500000Y-84400000D02*
X75550000Y-80450000D01*
X75550000Y-80450000D02*
X75375000Y-80450000D01*
%TO.N,/OUT 6*%
X79901000Y-113221000D02*
X79901000Y-80038500D01*
X91247100Y-124000000D02*
X91023550Y-123776450D01*
X79901000Y-80038500D02*
X75262500Y-75400000D01*
X91081000Y-124401000D02*
X91023550Y-124343550D01*
X90740000Y-124060000D02*
X79901000Y-113221000D01*
%TO.N,/OUT 7*%
X80302000Y-76927000D02*
X75300000Y-71925000D01*
X88767100Y-121520000D02*
X90740000Y-121520000D01*
X90760000Y-121500000D02*
X90740000Y-121520000D01*
X91327100Y-121500000D02*
X91023550Y-121803550D01*
X80302000Y-113054900D02*
X80302000Y-76927000D01*
X88767100Y-121520000D02*
X80302000Y-113054900D01*
%TO.N,+12V*%
X64500000Y-93400000D02*
X65337500Y-93400000D01*
X65150000Y-80900000D02*
X66000000Y-80050000D01*
X64500000Y-96900000D02*
X65275000Y-96900000D01*
X64500000Y-89900000D02*
X65087500Y-89900000D01*
X64500000Y-80900000D02*
X65150000Y-80900000D01*
X70200000Y-55700000D02*
X70200000Y-58200000D01*
X65325000Y-69400000D02*
X66000000Y-68725000D01*
X64500000Y-76900000D02*
X65262500Y-76900000D01*
X65262500Y-76900000D02*
X65937500Y-76225000D01*
X59582500Y-55900000D02*
X70000000Y-55900000D01*
X64500000Y-73400000D02*
X65212500Y-73400000D01*
X65087500Y-89900000D02*
X65937500Y-89050000D01*
X64500000Y-101400000D02*
X65100000Y-101400000D01*
X65337500Y-93400000D02*
X66012500Y-92725000D01*
X65275000Y-96900000D02*
X66000000Y-96175000D01*
X65212500Y-73400000D02*
X65912500Y-72700000D01*
X64500000Y-69400000D02*
X65325000Y-69400000D01*
X70000000Y-55900000D02*
X70200000Y-55700000D01*
X70200000Y-58200000D02*
X70000000Y-58400000D01*
X65100000Y-101400000D02*
X66000000Y-100500000D01*
%TO.N,/SIGNAL 3*%
X69075000Y-91400000D02*
X66337500Y-91400000D01*
X61337500Y-91075000D02*
X60062500Y-92350000D01*
X66337500Y-91400000D02*
X66012500Y-91075000D01*
X66012500Y-91075000D02*
X61337500Y-91075000D01*
%TO.N,/SIGNAL 4*%
X65937500Y-87400000D02*
X61512500Y-87400000D01*
X66437500Y-86900000D02*
X65937500Y-87400000D01*
X61512500Y-87400000D02*
X60062500Y-88850000D01*
X69000000Y-86900000D02*
X66437500Y-86900000D01*
%TO.N,/SIGNAL 1*%
X65050000Y-98850000D02*
X64550000Y-99350000D01*
X66000000Y-98850000D02*
X65050000Y-98850000D01*
X67550000Y-100400000D02*
X66000000Y-98850000D01*
X69000000Y-100400000D02*
X67550000Y-100400000D01*
X64550000Y-99350000D02*
X60062500Y-99350000D01*
%TO.N,/SIGNAL 2*%
X69050000Y-95850000D02*
X67325000Y-95850000D01*
X66000000Y-94525000D02*
X61387500Y-94525000D01*
X61387500Y-94525000D02*
X60062500Y-95850000D01*
X67325000Y-95850000D02*
X66000000Y-94525000D01*
%TO.N,/SIGNAL 6*%
X63550000Y-75350000D02*
X60062500Y-75350000D01*
X66750000Y-74575000D02*
X68075000Y-75900000D01*
X65612500Y-74900000D02*
X65937500Y-74575000D01*
X65937500Y-74575000D02*
X66750000Y-74575000D01*
X68075000Y-75900000D02*
X69000000Y-75900000D01*
X64325000Y-74575000D02*
X63550000Y-75350000D01*
X65937500Y-74575000D02*
X64325000Y-74575000D01*
%TO.N,/SIGNAL 7*%
X67400000Y-71975000D02*
X69100000Y-71975000D01*
X65912500Y-71050000D02*
X65150000Y-71050000D01*
X65150000Y-71050000D02*
X64350000Y-71850000D01*
X65912500Y-71050000D02*
X66475000Y-71050000D01*
X64350000Y-71850000D02*
X60062500Y-71850000D01*
X66475000Y-71050000D02*
X67400000Y-71975000D01*
%TO.N,/SIGNAL 8*%
X61337500Y-67075000D02*
X60062500Y-68350000D01*
X68950000Y-67075000D02*
X69125000Y-66900000D01*
X66000000Y-67075000D02*
X68950000Y-67075000D01*
X66000000Y-67075000D02*
X61337500Y-67075000D01*
%TO.N,/SIGNAL 5*%
X66000000Y-78400000D02*
X67000000Y-78400000D01*
X67000000Y-78400000D02*
X69000000Y-80400000D01*
X66000000Y-78400000D02*
X60512500Y-78400000D01*
X60512500Y-78400000D02*
X60062500Y-78850000D01*
%TO.N,Net-(Q1-B)*%
X73500000Y-101350000D02*
X70875000Y-101350000D01*
%TO.N,Net-(Q2-B)*%
X70975000Y-96850000D02*
X70925000Y-96800000D01*
X73550000Y-96850000D02*
X70975000Y-96850000D01*
%TO.N,Net-(Q3-B)*%
X71000000Y-92400000D02*
X70950000Y-92350000D01*
X73687500Y-92400000D02*
X71000000Y-92400000D01*
%TO.N,Net-(Q4-B)*%
X73612500Y-87900000D02*
X70925000Y-87900000D01*
X70925000Y-87900000D02*
X70875000Y-87850000D01*
%TO.N,Net-(Q5-B)*%
X73675000Y-80400000D02*
X71825000Y-80400000D01*
X71825000Y-80400000D02*
X70875000Y-81350000D01*
%TO.N,Net-(Q6-B)*%
X72325000Y-75400000D02*
X70875000Y-76850000D01*
X73612500Y-75400000D02*
X72325000Y-75400000D01*
%TO.N,Net-(Q7-B)*%
X73587500Y-71875000D02*
X72025000Y-71875000D01*
X72025000Y-71875000D02*
X70975000Y-72925000D01*
%TO.N,Net-(Q8-B)*%
X73500000Y-67900000D02*
X71050000Y-67900000D01*
X71050000Y-67900000D02*
X71000000Y-67850000D01*
%TO.N,Net-(D3-A)*%
X81000000Y-59900000D02*
X81000000Y-65500000D01*
X74000000Y-57950000D02*
X74500000Y-58450000D01*
X74000000Y-53400000D02*
X74000000Y-57950000D01*
X70200000Y-53400000D02*
X74000000Y-53400000D01*
X74000000Y-53400000D02*
X76500000Y-53400000D01*
%TD*%
M02*
