%TF.GenerationSoftware,KiCad,Pcbnew,9.0.6*%
%TF.CreationDate,2026-02-23T17:20:12-08:00*%
%TF.ProjectId,haven_buttons2.kicad_pro,68617665-6e5f-4627-9574-746f6e73322e,rev?*%
%TF.SameCoordinates,Original*%
%TF.FileFunction,Drillmap*%
%TF.FilePolarity,Positive*%
%FSLAX45Y45*%
G04 Gerber Fmt 4.5, Leading zero omitted, Abs format (unit mm)*
G04 Created by KiCad (PCBNEW 9.0.6) date 2026-02-23 17:20:12*
%MOMM*%
%LPD*%
G01*
G04 APERTURE LIST*
%ADD10C,0.050000*%
%ADD11C,0.200000*%
%ADD12C,0.270000*%
G04 APERTURE END LIST*
D10*
X11050000Y-4450000D02*
X11050000Y-13650000D01*
X11050000Y-13650000D02*
X5450000Y-13650000D01*
X5450000Y-13650000D02*
X5450000Y-4450000D01*
X5450000Y-4450000D02*
X11050000Y-4450000D01*
D11*
D12*
X5665000Y-4665000D02*
X5935000Y-4935000D01*
X5935000Y-4665000D02*
X5665000Y-4935000D01*
X5665000Y-13065000D02*
X5935000Y-13335000D01*
X5935000Y-13065000D02*
X5665000Y-13335000D01*
X10565000Y-4665000D02*
X10835000Y-4935000D01*
X10835000Y-4665000D02*
X10565000Y-4935000D01*
X10565000Y-13065000D02*
X10835000Y-13335000D01*
X10835000Y-13065000D02*
X10565000Y-13335000D01*
D11*
X5708277Y-13963984D02*
X5708277Y-13763984D01*
X5708277Y-13763984D02*
X5755896Y-13763984D01*
X5755896Y-13763984D02*
X5784467Y-13773508D01*
X5784467Y-13773508D02*
X5803515Y-13792555D01*
X5803515Y-13792555D02*
X5813039Y-13811603D01*
X5813039Y-13811603D02*
X5822562Y-13849698D01*
X5822562Y-13849698D02*
X5822562Y-13878269D01*
X5822562Y-13878269D02*
X5813039Y-13916365D01*
X5813039Y-13916365D02*
X5803515Y-13935412D01*
X5803515Y-13935412D02*
X5784467Y-13954460D01*
X5784467Y-13954460D02*
X5755896Y-13963984D01*
X5755896Y-13963984D02*
X5708277Y-13963984D01*
X5908277Y-13963984D02*
X5908277Y-13830650D01*
X5908277Y-13868746D02*
X5917801Y-13849698D01*
X5917801Y-13849698D02*
X5927324Y-13840174D01*
X5927324Y-13840174D02*
X5946372Y-13830650D01*
X5946372Y-13830650D02*
X5965420Y-13830650D01*
X6032086Y-13963984D02*
X6032086Y-13830650D01*
X6032086Y-13763984D02*
X6022562Y-13773508D01*
X6022562Y-13773508D02*
X6032086Y-13783031D01*
X6032086Y-13783031D02*
X6041610Y-13773508D01*
X6041610Y-13773508D02*
X6032086Y-13763984D01*
X6032086Y-13763984D02*
X6032086Y-13783031D01*
X6155896Y-13963984D02*
X6136848Y-13954460D01*
X6136848Y-13954460D02*
X6127324Y-13935412D01*
X6127324Y-13935412D02*
X6127324Y-13763984D01*
X6260658Y-13963984D02*
X6241610Y-13954460D01*
X6241610Y-13954460D02*
X6232086Y-13935412D01*
X6232086Y-13935412D02*
X6232086Y-13763984D01*
X6489229Y-13963984D02*
X6489229Y-13763984D01*
X6489229Y-13763984D02*
X6555896Y-13906841D01*
X6555896Y-13906841D02*
X6622562Y-13763984D01*
X6622562Y-13763984D02*
X6622562Y-13963984D01*
X6803515Y-13963984D02*
X6803515Y-13859222D01*
X6803515Y-13859222D02*
X6793991Y-13840174D01*
X6793991Y-13840174D02*
X6774943Y-13830650D01*
X6774943Y-13830650D02*
X6736848Y-13830650D01*
X6736848Y-13830650D02*
X6717801Y-13840174D01*
X6803515Y-13954460D02*
X6784467Y-13963984D01*
X6784467Y-13963984D02*
X6736848Y-13963984D01*
X6736848Y-13963984D02*
X6717801Y-13954460D01*
X6717801Y-13954460D02*
X6708277Y-13935412D01*
X6708277Y-13935412D02*
X6708277Y-13916365D01*
X6708277Y-13916365D02*
X6717801Y-13897317D01*
X6717801Y-13897317D02*
X6736848Y-13887793D01*
X6736848Y-13887793D02*
X6784467Y-13887793D01*
X6784467Y-13887793D02*
X6803515Y-13878269D01*
X6898753Y-13830650D02*
X6898753Y-14030650D01*
X6898753Y-13840174D02*
X6917801Y-13830650D01*
X6917801Y-13830650D02*
X6955896Y-13830650D01*
X6955896Y-13830650D02*
X6974943Y-13840174D01*
X6974943Y-13840174D02*
X6984467Y-13849698D01*
X6984467Y-13849698D02*
X6993991Y-13868746D01*
X6993991Y-13868746D02*
X6993991Y-13925888D01*
X6993991Y-13925888D02*
X6984467Y-13944936D01*
X6984467Y-13944936D02*
X6974943Y-13954460D01*
X6974943Y-13954460D02*
X6955896Y-13963984D01*
X6955896Y-13963984D02*
X6917801Y-13963984D01*
X6917801Y-13963984D02*
X6898753Y-13954460D01*
X7079705Y-13944936D02*
X7089229Y-13954460D01*
X7089229Y-13954460D02*
X7079705Y-13963984D01*
X7079705Y-13963984D02*
X7070182Y-13954460D01*
X7070182Y-13954460D02*
X7079705Y-13944936D01*
X7079705Y-13944936D02*
X7079705Y-13963984D01*
X7079705Y-13840174D02*
X7089229Y-13849698D01*
X7089229Y-13849698D02*
X7079705Y-13859222D01*
X7079705Y-13859222D02*
X7070182Y-13849698D01*
X7070182Y-13849698D02*
X7079705Y-13840174D01*
X7079705Y-13840174D02*
X7079705Y-13859222D01*
X5247500Y-14192500D02*
X5447500Y-14392500D01*
X5447500Y-14192500D02*
X5247500Y-14392500D01*
X5698753Y-14203031D02*
X5708277Y-14193508D01*
X5708277Y-14193508D02*
X5727324Y-14183984D01*
X5727324Y-14183984D02*
X5774943Y-14183984D01*
X5774943Y-14183984D02*
X5793991Y-14193508D01*
X5793991Y-14193508D02*
X5803515Y-14203031D01*
X5803515Y-14203031D02*
X5813039Y-14222079D01*
X5813039Y-14222079D02*
X5813039Y-14241127D01*
X5813039Y-14241127D02*
X5803515Y-14269698D01*
X5803515Y-14269698D02*
X5689229Y-14383984D01*
X5689229Y-14383984D02*
X5813039Y-14383984D01*
X5898753Y-14364936D02*
X5908277Y-14374460D01*
X5908277Y-14374460D02*
X5898753Y-14383984D01*
X5898753Y-14383984D02*
X5889229Y-14374460D01*
X5889229Y-14374460D02*
X5898753Y-14364936D01*
X5898753Y-14364936D02*
X5898753Y-14383984D01*
X5974943Y-14183984D02*
X6108277Y-14183984D01*
X6108277Y-14183984D02*
X6022562Y-14383984D01*
X6222562Y-14183984D02*
X6241610Y-14183984D01*
X6241610Y-14183984D02*
X6260658Y-14193508D01*
X6260658Y-14193508D02*
X6270182Y-14203031D01*
X6270182Y-14203031D02*
X6279705Y-14222079D01*
X6279705Y-14222079D02*
X6289229Y-14260174D01*
X6289229Y-14260174D02*
X6289229Y-14307793D01*
X6289229Y-14307793D02*
X6279705Y-14345888D01*
X6279705Y-14345888D02*
X6270182Y-14364936D01*
X6270182Y-14364936D02*
X6260658Y-14374460D01*
X6260658Y-14374460D02*
X6241610Y-14383984D01*
X6241610Y-14383984D02*
X6222562Y-14383984D01*
X6222562Y-14383984D02*
X6203515Y-14374460D01*
X6203515Y-14374460D02*
X6193991Y-14364936D01*
X6193991Y-14364936D02*
X6184467Y-14345888D01*
X6184467Y-14345888D02*
X6174943Y-14307793D01*
X6174943Y-14307793D02*
X6174943Y-14260174D01*
X6174943Y-14260174D02*
X6184467Y-14222079D01*
X6184467Y-14222079D02*
X6193991Y-14203031D01*
X6193991Y-14203031D02*
X6203515Y-14193508D01*
X6203515Y-14193508D02*
X6222562Y-14183984D01*
X6413039Y-14183984D02*
X6432086Y-14183984D01*
X6432086Y-14183984D02*
X6451134Y-14193508D01*
X6451134Y-14193508D02*
X6460658Y-14203031D01*
X6460658Y-14203031D02*
X6470182Y-14222079D01*
X6470182Y-14222079D02*
X6479705Y-14260174D01*
X6479705Y-14260174D02*
X6479705Y-14307793D01*
X6479705Y-14307793D02*
X6470182Y-14345888D01*
X6470182Y-14345888D02*
X6460658Y-14364936D01*
X6460658Y-14364936D02*
X6451134Y-14374460D01*
X6451134Y-14374460D02*
X6432086Y-14383984D01*
X6432086Y-14383984D02*
X6413039Y-14383984D01*
X6413039Y-14383984D02*
X6393991Y-14374460D01*
X6393991Y-14374460D02*
X6384467Y-14364936D01*
X6384467Y-14364936D02*
X6374943Y-14345888D01*
X6374943Y-14345888D02*
X6365420Y-14307793D01*
X6365420Y-14307793D02*
X6365420Y-14260174D01*
X6365420Y-14260174D02*
X6374943Y-14222079D01*
X6374943Y-14222079D02*
X6384467Y-14203031D01*
X6384467Y-14203031D02*
X6393991Y-14193508D01*
X6393991Y-14193508D02*
X6413039Y-14183984D01*
X6565420Y-14383984D02*
X6565420Y-14250650D01*
X6565420Y-14269698D02*
X6574943Y-14260174D01*
X6574943Y-14260174D02*
X6593991Y-14250650D01*
X6593991Y-14250650D02*
X6622563Y-14250650D01*
X6622563Y-14250650D02*
X6641610Y-14260174D01*
X6641610Y-14260174D02*
X6651134Y-14279222D01*
X6651134Y-14279222D02*
X6651134Y-14383984D01*
X6651134Y-14279222D02*
X6660658Y-14260174D01*
X6660658Y-14260174D02*
X6679705Y-14250650D01*
X6679705Y-14250650D02*
X6708277Y-14250650D01*
X6708277Y-14250650D02*
X6727324Y-14260174D01*
X6727324Y-14260174D02*
X6736848Y-14279222D01*
X6736848Y-14279222D02*
X6736848Y-14383984D01*
X6832086Y-14383984D02*
X6832086Y-14250650D01*
X6832086Y-14269698D02*
X6841610Y-14260174D01*
X6841610Y-14260174D02*
X6860658Y-14250650D01*
X6860658Y-14250650D02*
X6889229Y-14250650D01*
X6889229Y-14250650D02*
X6908277Y-14260174D01*
X6908277Y-14260174D02*
X6917801Y-14279222D01*
X6917801Y-14279222D02*
X6917801Y-14383984D01*
X6917801Y-14279222D02*
X6927324Y-14260174D01*
X6927324Y-14260174D02*
X6946372Y-14250650D01*
X6946372Y-14250650D02*
X6974943Y-14250650D01*
X6974943Y-14250650D02*
X6993991Y-14260174D01*
X6993991Y-14260174D02*
X7003515Y-14279222D01*
X7003515Y-14279222D02*
X7003515Y-14383984D01*
X7393991Y-14174460D02*
X7222563Y-14431603D01*
X7651134Y-14183984D02*
X7670182Y-14183984D01*
X7670182Y-14183984D02*
X7689229Y-14193508D01*
X7689229Y-14193508D02*
X7698753Y-14203031D01*
X7698753Y-14203031D02*
X7708277Y-14222079D01*
X7708277Y-14222079D02*
X7717801Y-14260174D01*
X7717801Y-14260174D02*
X7717801Y-14307793D01*
X7717801Y-14307793D02*
X7708277Y-14345888D01*
X7708277Y-14345888D02*
X7698753Y-14364936D01*
X7698753Y-14364936D02*
X7689229Y-14374460D01*
X7689229Y-14374460D02*
X7670182Y-14383984D01*
X7670182Y-14383984D02*
X7651134Y-14383984D01*
X7651134Y-14383984D02*
X7632086Y-14374460D01*
X7632086Y-14374460D02*
X7622563Y-14364936D01*
X7622563Y-14364936D02*
X7613039Y-14345888D01*
X7613039Y-14345888D02*
X7603515Y-14307793D01*
X7603515Y-14307793D02*
X7603515Y-14260174D01*
X7603515Y-14260174D02*
X7613039Y-14222079D01*
X7613039Y-14222079D02*
X7622563Y-14203031D01*
X7622563Y-14203031D02*
X7632086Y-14193508D01*
X7632086Y-14193508D02*
X7651134Y-14183984D01*
X7803515Y-14364936D02*
X7813039Y-14374460D01*
X7813039Y-14374460D02*
X7803515Y-14383984D01*
X7803515Y-14383984D02*
X7793991Y-14374460D01*
X7793991Y-14374460D02*
X7803515Y-14364936D01*
X7803515Y-14364936D02*
X7803515Y-14383984D01*
X8003515Y-14383984D02*
X7889229Y-14383984D01*
X7946372Y-14383984D02*
X7946372Y-14183984D01*
X7946372Y-14183984D02*
X7927325Y-14212555D01*
X7927325Y-14212555D02*
X7908277Y-14231603D01*
X7908277Y-14231603D02*
X7889229Y-14241127D01*
X8127325Y-14183984D02*
X8146372Y-14183984D01*
X8146372Y-14183984D02*
X8165420Y-14193508D01*
X8165420Y-14193508D02*
X8174944Y-14203031D01*
X8174944Y-14203031D02*
X8184467Y-14222079D01*
X8184467Y-14222079D02*
X8193991Y-14260174D01*
X8193991Y-14260174D02*
X8193991Y-14307793D01*
X8193991Y-14307793D02*
X8184467Y-14345888D01*
X8184467Y-14345888D02*
X8174944Y-14364936D01*
X8174944Y-14364936D02*
X8165420Y-14374460D01*
X8165420Y-14374460D02*
X8146372Y-14383984D01*
X8146372Y-14383984D02*
X8127325Y-14383984D01*
X8127325Y-14383984D02*
X8108277Y-14374460D01*
X8108277Y-14374460D02*
X8098753Y-14364936D01*
X8098753Y-14364936D02*
X8089229Y-14345888D01*
X8089229Y-14345888D02*
X8079706Y-14307793D01*
X8079706Y-14307793D02*
X8079706Y-14260174D01*
X8079706Y-14260174D02*
X8089229Y-14222079D01*
X8089229Y-14222079D02*
X8098753Y-14203031D01*
X8098753Y-14203031D02*
X8108277Y-14193508D01*
X8108277Y-14193508D02*
X8127325Y-14183984D01*
X8365420Y-14183984D02*
X8327325Y-14183984D01*
X8327325Y-14183984D02*
X8308277Y-14193508D01*
X8308277Y-14193508D02*
X8298753Y-14203031D01*
X8298753Y-14203031D02*
X8279706Y-14231603D01*
X8279706Y-14231603D02*
X8270182Y-14269698D01*
X8270182Y-14269698D02*
X8270182Y-14345888D01*
X8270182Y-14345888D02*
X8279706Y-14364936D01*
X8279706Y-14364936D02*
X8289229Y-14374460D01*
X8289229Y-14374460D02*
X8308277Y-14383984D01*
X8308277Y-14383984D02*
X8346372Y-14383984D01*
X8346372Y-14383984D02*
X8365420Y-14374460D01*
X8365420Y-14374460D02*
X8374944Y-14364936D01*
X8374944Y-14364936D02*
X8384467Y-14345888D01*
X8384467Y-14345888D02*
X8384467Y-14298269D01*
X8384467Y-14298269D02*
X8374944Y-14279222D01*
X8374944Y-14279222D02*
X8365420Y-14269698D01*
X8365420Y-14269698D02*
X8346372Y-14260174D01*
X8346372Y-14260174D02*
X8308277Y-14260174D01*
X8308277Y-14260174D02*
X8289229Y-14269698D01*
X8289229Y-14269698D02*
X8279706Y-14279222D01*
X8279706Y-14279222D02*
X8270182Y-14298269D01*
X8451134Y-14183984D02*
X8574944Y-14183984D01*
X8574944Y-14183984D02*
X8508277Y-14260174D01*
X8508277Y-14260174D02*
X8536849Y-14260174D01*
X8536849Y-14260174D02*
X8555896Y-14269698D01*
X8555896Y-14269698D02*
X8565420Y-14279222D01*
X8565420Y-14279222D02*
X8574944Y-14298269D01*
X8574944Y-14298269D02*
X8574944Y-14345888D01*
X8574944Y-14345888D02*
X8565420Y-14364936D01*
X8565420Y-14364936D02*
X8555896Y-14374460D01*
X8555896Y-14374460D02*
X8536849Y-14383984D01*
X8536849Y-14383984D02*
X8479706Y-14383984D01*
X8479706Y-14383984D02*
X8460658Y-14374460D01*
X8460658Y-14374460D02*
X8451134Y-14364936D01*
X8651134Y-14183984D02*
X8651134Y-14222079D01*
X8727325Y-14183984D02*
X8727325Y-14222079D01*
X9022563Y-14460174D02*
X9013039Y-14450650D01*
X9013039Y-14450650D02*
X8993991Y-14422079D01*
X8993991Y-14422079D02*
X8984468Y-14403031D01*
X8984468Y-14403031D02*
X8974944Y-14374460D01*
X8974944Y-14374460D02*
X8965420Y-14326841D01*
X8965420Y-14326841D02*
X8965420Y-14288746D01*
X8965420Y-14288746D02*
X8974944Y-14241127D01*
X8974944Y-14241127D02*
X8984468Y-14212555D01*
X8984468Y-14212555D02*
X8993991Y-14193508D01*
X8993991Y-14193508D02*
X9013039Y-14164936D01*
X9013039Y-14164936D02*
X9022563Y-14155412D01*
X9184468Y-14250650D02*
X9184468Y-14383984D01*
X9136849Y-14174460D02*
X9089230Y-14317317D01*
X9089230Y-14317317D02*
X9213039Y-14317317D01*
X9441611Y-14383984D02*
X9441611Y-14183984D01*
X9527325Y-14383984D02*
X9527325Y-14279222D01*
X9527325Y-14279222D02*
X9517801Y-14260174D01*
X9517801Y-14260174D02*
X9498753Y-14250650D01*
X9498753Y-14250650D02*
X9470182Y-14250650D01*
X9470182Y-14250650D02*
X9451134Y-14260174D01*
X9451134Y-14260174D02*
X9441611Y-14269698D01*
X9651134Y-14383984D02*
X9632087Y-14374460D01*
X9632087Y-14374460D02*
X9622563Y-14364936D01*
X9622563Y-14364936D02*
X9613039Y-14345888D01*
X9613039Y-14345888D02*
X9613039Y-14288746D01*
X9613039Y-14288746D02*
X9622563Y-14269698D01*
X9622563Y-14269698D02*
X9632087Y-14260174D01*
X9632087Y-14260174D02*
X9651134Y-14250650D01*
X9651134Y-14250650D02*
X9679706Y-14250650D01*
X9679706Y-14250650D02*
X9698753Y-14260174D01*
X9698753Y-14260174D02*
X9708277Y-14269698D01*
X9708277Y-14269698D02*
X9717801Y-14288746D01*
X9717801Y-14288746D02*
X9717801Y-14345888D01*
X9717801Y-14345888D02*
X9708277Y-14364936D01*
X9708277Y-14364936D02*
X9698753Y-14374460D01*
X9698753Y-14374460D02*
X9679706Y-14383984D01*
X9679706Y-14383984D02*
X9651134Y-14383984D01*
X9832087Y-14383984D02*
X9813039Y-14374460D01*
X9813039Y-14374460D02*
X9803515Y-14355412D01*
X9803515Y-14355412D02*
X9803515Y-14183984D01*
X9984468Y-14374460D02*
X9965420Y-14383984D01*
X9965420Y-14383984D02*
X9927325Y-14383984D01*
X9927325Y-14383984D02*
X9908277Y-14374460D01*
X9908277Y-14374460D02*
X9898753Y-14355412D01*
X9898753Y-14355412D02*
X9898753Y-14279222D01*
X9898753Y-14279222D02*
X9908277Y-14260174D01*
X9908277Y-14260174D02*
X9927325Y-14250650D01*
X9927325Y-14250650D02*
X9965420Y-14250650D01*
X9965420Y-14250650D02*
X9984468Y-14260174D01*
X9984468Y-14260174D02*
X9993992Y-14279222D01*
X9993992Y-14279222D02*
X9993992Y-14298269D01*
X9993992Y-14298269D02*
X9898753Y-14317317D01*
X10070182Y-14374460D02*
X10089230Y-14383984D01*
X10089230Y-14383984D02*
X10127325Y-14383984D01*
X10127325Y-14383984D02*
X10146373Y-14374460D01*
X10146373Y-14374460D02*
X10155896Y-14355412D01*
X10155896Y-14355412D02*
X10155896Y-14345888D01*
X10155896Y-14345888D02*
X10146373Y-14326841D01*
X10146373Y-14326841D02*
X10127325Y-14317317D01*
X10127325Y-14317317D02*
X10098753Y-14317317D01*
X10098753Y-14317317D02*
X10079706Y-14307793D01*
X10079706Y-14307793D02*
X10070182Y-14288746D01*
X10070182Y-14288746D02*
X10070182Y-14279222D01*
X10070182Y-14279222D02*
X10079706Y-14260174D01*
X10079706Y-14260174D02*
X10098753Y-14250650D01*
X10098753Y-14250650D02*
X10127325Y-14250650D01*
X10127325Y-14250650D02*
X10146373Y-14260174D01*
X10222563Y-14460174D02*
X10232087Y-14450650D01*
X10232087Y-14450650D02*
X10251134Y-14422079D01*
X10251134Y-14422079D02*
X10260658Y-14403031D01*
X10260658Y-14403031D02*
X10270182Y-14374460D01*
X10270182Y-14374460D02*
X10279706Y-14326841D01*
X10279706Y-14326841D02*
X10279706Y-14288746D01*
X10279706Y-14288746D02*
X10270182Y-14241127D01*
X10270182Y-14241127D02*
X10260658Y-14212555D01*
X10260658Y-14212555D02*
X10251134Y-14193508D01*
X10251134Y-14193508D02*
X10232087Y-14164936D01*
X10232087Y-14164936D02*
X10222563Y-14155412D01*
X10584468Y-14460174D02*
X10574944Y-14450650D01*
X10574944Y-14450650D02*
X10555896Y-14422079D01*
X10555896Y-14422079D02*
X10546373Y-14403031D01*
X10546373Y-14403031D02*
X10536849Y-14374460D01*
X10536849Y-14374460D02*
X10527325Y-14326841D01*
X10527325Y-14326841D02*
X10527325Y-14288746D01*
X10527325Y-14288746D02*
X10536849Y-14241127D01*
X10536849Y-14241127D02*
X10546373Y-14212555D01*
X10546373Y-14212555D02*
X10555896Y-14193508D01*
X10555896Y-14193508D02*
X10574944Y-14164936D01*
X10574944Y-14164936D02*
X10584468Y-14155412D01*
X10660658Y-14250650D02*
X10660658Y-14383984D01*
X10660658Y-14269698D02*
X10670182Y-14260174D01*
X10670182Y-14260174D02*
X10689230Y-14250650D01*
X10689230Y-14250650D02*
X10717801Y-14250650D01*
X10717801Y-14250650D02*
X10736849Y-14260174D01*
X10736849Y-14260174D02*
X10746373Y-14279222D01*
X10746373Y-14279222D02*
X10746373Y-14383984D01*
X10870182Y-14383984D02*
X10851134Y-14374460D01*
X10851134Y-14374460D02*
X10841611Y-14364936D01*
X10841611Y-14364936D02*
X10832087Y-14345888D01*
X10832087Y-14345888D02*
X10832087Y-14288746D01*
X10832087Y-14288746D02*
X10841611Y-14269698D01*
X10841611Y-14269698D02*
X10851134Y-14260174D01*
X10851134Y-14260174D02*
X10870182Y-14250650D01*
X10870182Y-14250650D02*
X10898754Y-14250650D01*
X10898754Y-14250650D02*
X10917801Y-14260174D01*
X10917801Y-14260174D02*
X10927325Y-14269698D01*
X10927325Y-14269698D02*
X10936849Y-14288746D01*
X10936849Y-14288746D02*
X10936849Y-14345888D01*
X10936849Y-14345888D02*
X10927325Y-14364936D01*
X10927325Y-14364936D02*
X10917801Y-14374460D01*
X10917801Y-14374460D02*
X10898754Y-14383984D01*
X10898754Y-14383984D02*
X10870182Y-14383984D01*
X10993992Y-14250650D02*
X11070182Y-14250650D01*
X11022563Y-14183984D02*
X11022563Y-14355412D01*
X11022563Y-14355412D02*
X11032087Y-14374460D01*
X11032087Y-14374460D02*
X11051134Y-14383984D01*
X11051134Y-14383984D02*
X11070182Y-14383984D01*
X11289230Y-14250650D02*
X11289230Y-14450650D01*
X11289230Y-14260174D02*
X11308277Y-14250650D01*
X11308277Y-14250650D02*
X11346373Y-14250650D01*
X11346373Y-14250650D02*
X11365420Y-14260174D01*
X11365420Y-14260174D02*
X11374944Y-14269698D01*
X11374944Y-14269698D02*
X11384468Y-14288746D01*
X11384468Y-14288746D02*
X11384468Y-14345888D01*
X11384468Y-14345888D02*
X11374944Y-14364936D01*
X11374944Y-14364936D02*
X11365420Y-14374460D01*
X11365420Y-14374460D02*
X11346373Y-14383984D01*
X11346373Y-14383984D02*
X11308277Y-14383984D01*
X11308277Y-14383984D02*
X11289230Y-14374460D01*
X11498753Y-14383984D02*
X11479706Y-14374460D01*
X11479706Y-14374460D02*
X11470182Y-14355412D01*
X11470182Y-14355412D02*
X11470182Y-14183984D01*
X11660658Y-14383984D02*
X11660658Y-14279222D01*
X11660658Y-14279222D02*
X11651134Y-14260174D01*
X11651134Y-14260174D02*
X11632087Y-14250650D01*
X11632087Y-14250650D02*
X11593992Y-14250650D01*
X11593992Y-14250650D02*
X11574944Y-14260174D01*
X11660658Y-14374460D02*
X11641611Y-14383984D01*
X11641611Y-14383984D02*
X11593992Y-14383984D01*
X11593992Y-14383984D02*
X11574944Y-14374460D01*
X11574944Y-14374460D02*
X11565420Y-14355412D01*
X11565420Y-14355412D02*
X11565420Y-14336365D01*
X11565420Y-14336365D02*
X11574944Y-14317317D01*
X11574944Y-14317317D02*
X11593992Y-14307793D01*
X11593992Y-14307793D02*
X11641611Y-14307793D01*
X11641611Y-14307793D02*
X11660658Y-14298269D01*
X11727325Y-14250650D02*
X11803515Y-14250650D01*
X11755896Y-14183984D02*
X11755896Y-14355412D01*
X11755896Y-14355412D02*
X11765420Y-14374460D01*
X11765420Y-14374460D02*
X11784468Y-14383984D01*
X11784468Y-14383984D02*
X11803515Y-14383984D01*
X11946373Y-14374460D02*
X11927325Y-14383984D01*
X11927325Y-14383984D02*
X11889230Y-14383984D01*
X11889230Y-14383984D02*
X11870182Y-14374460D01*
X11870182Y-14374460D02*
X11860658Y-14355412D01*
X11860658Y-14355412D02*
X11860658Y-14279222D01*
X11860658Y-14279222D02*
X11870182Y-14260174D01*
X11870182Y-14260174D02*
X11889230Y-14250650D01*
X11889230Y-14250650D02*
X11927325Y-14250650D01*
X11927325Y-14250650D02*
X11946373Y-14260174D01*
X11946373Y-14260174D02*
X11955896Y-14279222D01*
X11955896Y-14279222D02*
X11955896Y-14298269D01*
X11955896Y-14298269D02*
X11860658Y-14317317D01*
X12127325Y-14383984D02*
X12127325Y-14183984D01*
X12127325Y-14374460D02*
X12108277Y-14383984D01*
X12108277Y-14383984D02*
X12070182Y-14383984D01*
X12070182Y-14383984D02*
X12051134Y-14374460D01*
X12051134Y-14374460D02*
X12041611Y-14364936D01*
X12041611Y-14364936D02*
X12032087Y-14345888D01*
X12032087Y-14345888D02*
X12032087Y-14288746D01*
X12032087Y-14288746D02*
X12041611Y-14269698D01*
X12041611Y-14269698D02*
X12051134Y-14260174D01*
X12051134Y-14260174D02*
X12070182Y-14250650D01*
X12070182Y-14250650D02*
X12108277Y-14250650D01*
X12108277Y-14250650D02*
X12127325Y-14260174D01*
X12203515Y-14460174D02*
X12213039Y-14450650D01*
X12213039Y-14450650D02*
X12232087Y-14422079D01*
X12232087Y-14422079D02*
X12241611Y-14403031D01*
X12241611Y-14403031D02*
X12251134Y-14374460D01*
X12251134Y-14374460D02*
X12260658Y-14326841D01*
X12260658Y-14326841D02*
X12260658Y-14288746D01*
X12260658Y-14288746D02*
X12251134Y-14241127D01*
X12251134Y-14241127D02*
X12241611Y-14212555D01*
X12241611Y-14212555D02*
X12232087Y-14193508D01*
X12232087Y-14193508D02*
X12213039Y-14164936D01*
X12213039Y-14164936D02*
X12203515Y-14155412D01*
M02*
